<?xml version="1.0" standalone="no"?>
<!DOCTYPE svg PUBLIC "-//W3C//DTD SVG 20010904//EN"
 "http://www.w3.org/TR/2001/REC-SVG-20010904/DTD/svg10.dtd">
<svg version="1.0" xmlns="http://www.w3.org/2000/svg"
 width="120.000000pt" height="48.000000pt" viewBox="0 0 120.000000 48.000000"
 preserveAspectRatio="xMidYMid meet">

<g transform="translate(0.000000,48.000000) scale(0.100000,-0.100000)"
fill="#000000" stroke="none">
<path d="M542 471 c-160 -41 -229 -242 -128 -374 88 -116 260 -126 357 -20 46
49 63 93 63 163 0 70 -17 114 -63 163 -53 57 -153 87 -229 68z m56 -39 c4 -13
-42 -27 -57 -17 -18 10 -12 23 12 28 29 6 40 3 45 -11z m75 -2 c14 -12 -12
-22 -39 -16 -13 4 -24 13 -24 21 0 12 7 14 28 9 15 -4 31 -10 35 -14z m-153
-15 c0 -8 5 -24 12 -34 16 -26 -7 -58 -29 -40 -11 10 -11 15 3 30 19 21 6 27
-14 7 -10 -10 -12 -8 -9 7 6 39 37 64 37 30z m198 -19 c3 -15 1 -16 -17 -6
-12 6 -19 16 -15 21 9 15 28 5 32 -15z m-67 -9 c-1 -4 -1 -11 -1 -17 0 -5 -9
-10 -20 -10 -15 0 -20 7 -20 25 0 20 3 23 21 17 11 -5 20 -11 20 -15z m-53 -4
c-2 -10 -12 -18 -23 -18 -11 0 -21 8 -23 18 -3 13 3 17 23 17 20 0 26 -4 23
-17z m105 -11 c13 -14 14 -21 5 -30 -17 -17 -47 3 -41 28 7 25 15 25 36 2z
m-259 -17 c-9 -14 -19 -24 -21 -21 -7 7 16 46 28 46 5 0 2 -11 -7 -25z m340
-24 c-5 -6 -33 31 -33 44 -1 6 8 -1 19 -15 10 -14 17 -27 14 -29z m-186 7 c-6
-18 -28 -21 -28 -4 0 9 7 16 16 16 9 0 14 -5 12 -12z m40 0 c-6 -18 -28 -21
-28 -4 0 9 7 16 16 16 9 0 14 -5 12 -12z m-83 -28 c-5 -8 -11 -8 -17 -2 -6 6
-7 16 -3 22 5 8 11 8 17 2 6 -6 7 -16 3 -22z m122 7 c-6 -20 -27 -19 -27 2 0
14 5 19 15 14 9 -3 14 -10 12 -16z m-257 -27 c0 -16 -4 -30 -10 -30 -11 0 -14
43 -3 53 11 12 13 8 13 -23z m107 -15 c49 -51 51 -62 22 -99 -53 -67 -122 6
-97 103 6 23 15 41 21 41 6 0 30 -20 54 -45z m233 -36 c0 -74 -71 -118 -106
-64 -23 34 -12 65 37 110 l42 38 13 -24 c7 -13 13 -40 14 -60z m-143 49 c-3
-8 -6 -5 -6 6 -1 11 2 17 5 13 3 -3 4 -12 1 -19z m186 0 c6 -21 2 -36 -7 -27
-10 11 -16 49 -8 49 5 0 12 -10 15 -22z m-203 2 c0 -5 -2 -10 -4 -10 -3 0 -8
5 -11 10 -3 6 -1 10 4 10 6 0 11 -4 11 -10z m-25 -11 c11 -17 -1 -21 -15 -4
-8 9 -8 15 -2 15 6 0 14 -5 17 -11z m75 2 c0 -6 -4 -13 -10 -16 -5 -3 -10 1
-10 9 0 9 5 16 10 16 6 0 10 -4 10 -9z m-34 -37 c-3 -9 -6 -21 -6 -27 0 -7 -7
-3 -15 7 -16 21 -11 36 12 36 10 0 13 -6 9 -16z m194 -8 c0 -23 -11 -46 -20
-41 -10 6 0 55 11 55 5 0 9 -6 9 -14z m-390 -21 c0 -14 -4 -25 -10 -25 -5 0
-10 4 -10 9 0 5 -3 16 -6 25 -4 11 -1 16 10 16 10 0 16 -9 16 -25z m190 -25
c0 -5 -4 -10 -10 -10 -5 0 -10 5 -10 10 0 6 5 10 10 10 6 0 10 -4 10 -10z
m-172 -30 c17 -28 4 -50 -15 -25 -14 21 -17 45 -5 45 4 0 13 -9 20 -20z m356
2 c-8 -30 -70 -96 -82 -88 -16 10 -15 22 3 40 9 8 23 12 32 9 10 -4 14 -2 10
4 -7 11 19 53 33 53 4 0 6 -8 4 -18z m-184 -12 c0 -5 -4 -10 -10 -10 -5 0 -10
5 -10 10 0 6 5 10 10 10 6 0 10 -4 10 -10z m-116 -43 c8 -12 7 -20 -1 -28 -18
-18 -58 18 -41 38 13 16 28 13 42 -10z m72 12 c10 -17 -13 -36 -27 -22 -12 12
-4 33 11 33 5 0 12 -5 16 -11z m103 -3 c9 -11 8 -15 -5 -20 -18 -7 -37 11 -28
26 8 12 20 10 33 -6z m-49 -14 c0 -11 -7 -18 -20 -18 -13 0 -20 7 -20 18 0 11
7 18 20 18 13 0 20 -7 20 -18z m-63 -45 c-4 -11 -45 -12 -55 -2 -3 2 1 11 8
20 9 11 17 12 32 4 10 -6 17 -16 15 -22z m132 -8 c-18 -12 -41 -7 -47 9 -6 19
41 33 52 15 5 -10 4 -18 -5 -24z m-59 1 c0 -16 -7 -20 -30 -20 -18 0 -30 5
-30 13 0 20 10 27 37 27 16 0 23 -6 23 -20z"/>
</g>
</svg>
