<?xml version="1.0" standalone="no"?>
<!DOCTYPE svg PUBLIC "-//W3C//DTD SVG 20010904//EN"
 "http://www.w3.org/TR/2001/REC-SVG-20010904/DTD/svg10.dtd">
<svg version="1.0" xmlns="http://www.w3.org/2000/svg"
 width="336.000000pt" height="304.000000pt" viewBox="0 0 336.000000 304.000000"
 preserveAspectRatio="xMidYMid meet">

<g transform="translate(0.000000,304.000000) scale(0.100000,-0.100000)"
fill="#000000" stroke="none">
<path d="M2473 3023 c15 -2 37 -2 50 0 12 2 0 4 -28 4 -27 0 -38 -2 -22 -4z"/>
<path d="M2558 3023 c6 -2 18 -2 25 0 6 3 1 5 -13 5 -14 0 -19 -2 -12 -5z"/>
<path d="M2408 3013 c7 -3 16 -2 19 1 4 3 -2 6 -13 5 -11 0 -14 -3 -6 -6z"/>
<path d="M1796 2975 c-4 -19 -11 -71 -16 -116 -5 -45 -14 -87 -20 -94 -17 -21
-30 -246 -22 -380 4 -66 6 -154 4 -196 l-3 -76 -61 -17 c-92 -25 -171 -70
-241 -136 -57 -52 -70 -60 -104 -60 -70 0 -78 -19 -78 -182 0 -76 -1 -135 -2
-131 -1 4 -18 71 -38 147 -20 76 -45 156 -56 177 -22 44 -44 49 -108 23 -31
-12 -40 -22 -43 -45 -3 -16 -1 -29 4 -29 5 0 6 -4 3 -10 -4 -6 1 -7 11 -3 13
5 14 8 5 11 -10 3 -7 10 10 23 20 16 21 18 4 13 -17 -5 -16 -2 5 15 16 13 36
20 55 19 26 -3 32 -10 48 -53 10 -27 36 -120 58 -205 42 -162 57 -210 68 -210
3 0 6 44 7 98 0 79 4 107 24 152 76 177 200 299 356 350 36 12 67 20 68 19 2
-2 7 -60 11 -129 4 -69 8 -127 10 -130 2 -3 4 -30 6 -60 1 -30 7 -63 13 -72
25 -41 -41 -117 -81 -92 -10 5 -28 31 -41 56 l-23 46 20 33 c13 21 21 51 21
77 0 36 -6 49 -31 73 -46 43 -127 43 -173 1 -74 -70 -89 -202 -27 -249 35 -27
107 -13 154 31 15 14 29 26 31 26 2 0 6 -14 10 -31 3 -17 19 -44 36 -60 16
-17 34 -47 40 -68 15 -57 50 -85 97 -78 46 8 78 41 95 100 6 23 27 59 45 80
18 20 33 45 33 54 0 12 9 5 25 -19 34 -50 105 -92 143 -83 34 7 76 48 91 88
43 112 -29 227 -142 227 -81 0 -131 -54 -126 -136 2 -24 0 -46 -4 -50 -4 -4
-7 -14 -7 -22 0 -27 -40 -70 -71 -77 -38 -9 -62 11 -62 52 1 110 5 219 10 226
2 4 5 51 5 103 l0 94 52 0 c29 0 79 -7 111 -15 220 -57 358 -226 379 -465 4
-41 9 -91 12 -111 18 -138 -120 -674 -224 -874 -8 -16 -17 -41 -18 -54 -4 -34
-46 -93 -78 -111 -25 -13 -29 -13 -41 3 -23 31 1 169 39 228 29 43 22 62 -45
113 -57 43 -109 122 -116 176 -3 22 -10 40 -16 40 -16 0 -1 -74 24 -126 14
-27 51 -71 86 -102 l61 -54 -19 -32 c-28 -48 -46 -105 -54 -173 -6 -58 -5 -64
19 -88 36 -36 63 -32 111 19 32 33 48 61 65 117 12 41 32 97 45 124 12 28 28
67 36 88 7 20 16 37 20 37 16 0 43 -159 44 -255 0 -89 -3 -107 -27 -159 -32
-66 -34 -81 -14 -73 33 13 216 -50 216 -74 0 -10 -49 -14 -170 -11 -121 2
-169 11 -191 33 -15 15 -42 23 -103 29 -92 11 -181 38 -229 71 -40 27 -97 90
-97 106 0 7 -4 13 -9 13 -5 0 -18 3 -28 6 -16 5 -16 4 -3 -8 8 -7 27 -32 43
-55 32 -50 110 -105 187 -132 l54 -19 -59 -7 c-59 -8 -227 -1 -297 11 -32 5
-38 4 -38 -10 0 -38 -161 -64 -204 -33 -16 12 -16 14 2 30 11 10 33 22 48 26
38 10 39 37 1 33 -44 -5 -105 17 -143 50 -58 51 -77 100 -82 207 -5 109 9 185
42 230 23 30 23 34 10 84 -21 82 -53 287 -55 347 -1 39 -11 76 -35 127 -18 40
-36 84 -40 98 -3 14 -10 25 -16 25 -5 0 -6 5 -2 11 4 8 -1 9 -16 4 -15 -5 -20
-4 -16 4 9 14 -3 13 -32 -3 l-24 -13 30 -12 c17 -7 35 -10 40 -7 5 3 22 -27
37 -67 15 -40 33 -81 40 -92 6 -11 15 -65 19 -120 4 -55 18 -158 32 -228 24
-116 25 -130 11 -145 -63 -69 -68 -297 -10 -404 30 -55 63 -82 130 -108 l45
-17 -26 -17 c-31 -20 -34 -51 -5 -66 63 -34 211 -15 243 32 12 17 19 18 50 10
20 -6 43 -17 51 -26 26 -26 85 -31 135 -12 25 10 91 24 148 32 89 12 105 12
125 0 46 -31 138 -46 267 -45 140 1 173 7 178 32 5 24 -77 73 -159 94 -50 12
-68 21 -64 31 3 8 5 17 5 20 0 4 33 7 73 7 44 1 97 9 137 22 51 16 78 19 125
13 103 -12 160 14 80 36 -55 15 -172 44 -180 44 -4 0 -5 -15 -3 -32 3 -31 1
-34 -42 -45 -25 -6 -72 -12 -105 -12 l-60 -1 0 138 c-1 120 -4 146 -26 209
l-25 72 18 63 c27 96 86 394 93 473 4 39 15 100 25 137 26 94 34 189 21 231
-11 33 -42 54 -106 71 -11 3 -29 22 -40 43 -28 51 -122 144 -178 175 -69 39
-164 70 -232 75 l-60 5 -2 331 c-2 207 -7 335 -13 341 -5 5 -10 52 -10 102 0
95 -13 131 -24 69z m14 -135 c0 -16 -4 -30 -10 -30 -11 0 -14 43 -3 53 11 12
13 8 13 -23z m-10 -150 c-4 -41 -7 -63 -8 -49 -1 14 -7 41 -13 58 -9 24 -9 39
0 58 19 42 28 14 21 -67z m-33 -62 c-3 -8 -6 -5 -6 6 -1 11 2 17 5 13 3 -3 4
-12 1 -19z m25 -118 c14 0 18 -5 14 -16 -3 -9 -6 -54 -6 -100 0 -59 -3 -83
-11 -78 -6 4 -10 35 -9 78 3 97 -2 115 -10 36 -5 -54 -7 -46 -7 50 0 63 2 96
4 73 3 -35 8 -43 25 -43z m-6 -250 c11 0 14 -17 14 -72 1 -40 4 -104 9 -143 7
-60 -1 -189 -9 -160 -4 12 -8 98 -8 178 -1 32 -5 57 -11 57 -7 0 -9 18 -6 46
3 26 2 51 -2 57 -4 6 -8 25 -9 42 -1 16 0 22 3 13 2 -10 11 -18 19 -18z m-306
-283 c0 -2 -19 -21 -42 -42 l-43 -40 40 43 c36 39 45 47 45 39z m152 -117 c33
-41 16 -120 -38 -171 -29 -27 -32 -17 -4 18 29 38 36 90 15 113 -29 33 -96 27
-140 -11 -19 -17 -35 -28 -35 -25 0 18 33 67 57 86 37 29 118 24 145 -10z
m533 10 c80 -30 95 -185 23 -245 -29 -25 -88 -35 -88 -15 0 6 9 10 19 10 25 0
77 61 86 100 13 60 -40 110 -118 110 -54 0 -82 -29 -81 -84 1 -51 -11 -53 -19
-3 -7 48 2 83 30 111 35 35 83 40 148 16z m-388 -22 c-3 -8 -6 -5 -6 6 -1 11
2 17 5 13 3 -3 4 -12 1 -19z m32 -112 c-9 -8 -10 0 -5 38 3 27 7 56 8 65 1 9
3 -8 5 -38 3 -33 0 -58 -8 -65z m-358 -58 c14 -28 11 -32 -11 -13 -12 11 -20
30 -19 49 0 31 0 31 11 6 5 -14 14 -33 19 -42z m299 -112 c0 -8 -4 -18 -10
-21 -5 -3 -10 3 -10 14 0 12 5 21 10 21 6 0 10 -6 10 -14z"/>
<path d="M2700 2986 c0 -2 16 -13 36 -25 19 -12 32 -16 29 -11 -7 11 -65 43
-65 36z"/>
<path d="M2295 2970 c-3 -6 1 -7 9 -4 18 7 21 14 7 14 -6 0 -13 -4 -16 -10z"/>
<path d="M2815 2900 c21 -22 41 -40 44 -40 3 0 -13 18 -34 40 -21 22 -41 40
-44 40 -3 0 13 -18 34 -40z"/>
<path d="M2195 2888 l-40 -43 43 40 c39 36 47 45 39 45 -2 0 -21 -19 -42 -42z"/>
<path d="M2897 2785 c9 -19 18 -33 21 -31 4 5 -26 66 -33 66 -3 0 3 -16 12
-35z"/>
<path d="M2148 2733 c-29 -7 -20 -20 11 -15 34 5 51 -16 27 -33 -15 -11 -15
-13 5 -18 27 -7 22 -41 -8 -45 -19 -3 -22 2 -26 45 l-3 48 -2 -52 c-2 -52 -2
-53 28 -53 33 0 54 27 39 51 -5 7 -9 24 -9 36 0 18 -29 47 -42 42 -2 -1 -11
-3 -20 -6z"/>
<path d="M2782 2716 c-1 -11 -7 -16 -16 -13 -17 7 -41 -11 -49 -35 -9 -25 20
-50 47 -42 29 9 28 6 23 60 -2 27 -4 41 -5 30z m-4 -48 c-4 -30 -48 -39 -48
-10 0 10 3 22 7 25 3 4 15 7 25 7 14 0 19 -6 16 -22z"/>
<path d="M2292 2698 c-16 -16 -15 -53 1 -67 10 -8 19 -7 33 4 18 14 17 15 -8
9 -38 -8 -35 9 3 23 27 11 30 15 19 28 -15 18 -32 19 -48 3z m38 -7 c0 -14
-18 -23 -30 -16 -6 4 -8 11 -5 16 8 12 35 12 35 0z"/>
<path d="M2360 2664 c0 -26 5 -44 11 -44 7 0 9 9 6 21 -7 27 1 49 19 49 9 0
14 -11 14 -32 0 -25 3 -29 10 -18 20 31 5 60 -34 64 -25 3 -26 1 -26 -40z"/>
<path d="M2448 2670 c9 -22 20 -40 23 -40 9 0 29 49 28 68 0 9 -6 2 -13 -17
l-12 -34 -13 31 c-8 18 -17 32 -21 32 -5 0 -1 -18 8 -40z"/>
<path d="M2534 2702 c-6 -4 -14 -17 -18 -28 -8 -26 17 -56 39 -48 22 9 18 23
-5 17 -11 -3 -20 -1 -20 5 0 5 12 13 26 16 17 5 24 12 22 24 -4 18 -27 26 -44
14z m30 -11 c3 -5 -1 -12 -10 -15 -20 -8 -29 -1 -19 13 8 13 22 14 29 2z"/>
<path d="M2600 2662 c0 -25 3 -42 7 -38 4 4 7 19 8 34 0 42 33 42 38 0 l4 -33
1 38 c1 20 -1 37 -5 38 -56 6 -53 8 -53 -39z"/>
<path d="M2814 2696 c-3 -8 -4 -25 -2 -38 2 -18 9 -23 33 -23 28 0 30 3 30 35
0 31 -3 35 -28 38 -17 2 -29 -2 -33 -12z m51 -26 c0 -29 -32 -41 -41 -16 -9
24 4 48 23 44 12 -2 18 -12 18 -28z"/>
<path d="M2252 2675 c0 -16 2 -22 5 -12 2 9 2 23 0 30 -3 6 -5 -1 -5 -18z"/>
<path d="M2680 2664 c0 -21 4 -33 10 -29 6 3 10 19 10 36 0 16 -4 29 -10 29
-5 0 -10 -16 -10 -36z"/>
<path d="M2415 2530 c-3 -5 3 -10 14 -10 12 0 21 -4 21 -10 0 -5 -6 -7 -13 -4
-18 7 -41 -22 -33 -41 3 -8 17 -15 31 -15 22 0 25 4 25 33 0 44 -29 73 -45 47z
m35 -49 c0 -14 -18 -23 -30 -16 -6 4 -8 11 -5 16 8 12 35 12 35 0z"/>
<path d="M2525 2502 c-3 -18 -2 -38 2 -45 5 -8 10 0 13 21 3 18 10 33 15 33 6
0 13 -15 16 -33 l6 -33 2 38 c1 27 5 37 17 37 13 0 15 -7 11 -35 -3 -21 -2
-33 4 -30 13 9 11 62 -3 71 -6 4 -26 7 -44 8 -29 1 -33 -2 -39 -32z"/>
<path d="M2643 2495 c0 -22 2 -30 4 -17 2 12 2 30 0 40 -3 9 -5 -1 -4 -23z"/>
<path d="M2962 2400 c0 -14 2 -19 5 -12 2 6 2 18 0 25 -3 6 -5 1 -5 -13z"/>
<path d="M2770 2380 c0 -5 -8 -10 -19 -10 -25 0 -43 -24 -39 -52 2 -18 10 -24
36 -26 l32 -3 0 50 c0 28 -2 51 -5 51 -3 0 -5 -4 -5 -10z m-5 -30 c11 -18 -6
-50 -26 -50 -13 0 -19 7 -19 24 0 30 32 48 45 26z"/>
<path d="M2145 2361 c-9 -11 -15 -30 -13 -43 3 -26 34 -36 52 -17 8 9 7 10 -7
5 -33 -11 -40 6 -8 20 35 15 39 29 12 43 -14 8 -22 6 -36 -8z m35 -11 c0 -5
-7 -10 -15 -10 -8 0 -15 5 -15 10 0 6 7 10 15 10 8 0 15 -4 15 -10z"/>
<path d="M2306 2365 c-29 -29 -17 -75 19 -75 13 0 26 4 29 8 2 4 -8 8 -22 7
-32 0 -43 34 -17 55 12 10 18 10 32 -1 14 -12 16 -12 11 1 -7 21 -33 24 -52 5z"/>
<path d="M2817 2369 c-22 -13 -23 -67 -1 -76 24 -9 49 10 52 40 4 31 -24 51
-51 36z m41 -35 c3 -22 -21 -39 -39 -28 -11 6 -12 38 -2 48 13 13 38 1 41 -20z"/>
<path d="M2219 2327 c5 -37 6 -38 9 -12 2 17 8 34 13 40 14 14 30 -15 24 -43
-4 -15 -2 -21 5 -17 14 9 13 51 -2 62 -7 5 -22 10 -33 10 -18 1 -20 -3 -16
-40z"/>
<path d="M2387 2331 c7 -45 13 -53 13 -18 0 14 7 30 16 35 14 8 12 10 -9 14
-24 5 -25 3 -20 -31z"/>
<path d="M2485 2362 c-3 -3 -5 -26 -5 -51 0 -25 4 -41 8 -35 4 7 16 13 26 15
28 6 43 35 30 57 -11 16 -47 25 -59 14z m55 -38 c0 -8 -2 -14 -4 -14 -2 0 -11
-3 -20 -6 -12 -5 -16 0 -16 18 0 14 3 28 7 31 9 9 33 -12 33 -29z"/>
<path d="M2570 2360 c-11 -7 -12 -12 -4 -17 7 -5 13 -17 15 -28 3 -11 13 -21
24 -23 18 -2 19 -2 3 8 -10 6 -18 20 -18 30 0 12 7 20 18 20 14 0 15 2 2 10
-19 12 -21 12 -40 0z"/>
<path d="M2645 2360 c-3 -5 0 -7 8 -4 8 3 17 -2 20 -10 4 -9 1 -13 -6 -11 -19
7 -39 -11 -35 -31 2 -13 12 -19 28 -19 20 0 26 6 28 28 5 40 -26 74 -43 47z
m26 -55 c-1 -15 -24 -12 -29 3 -3 9 2 13 12 10 10 -1 17 -7 17 -13z"/>
<path d="M2449 2330 c-7 -35 -4 -48 7 -38 3 4 4 21 2 40 l-3 33 -6 -35z"/>
<path d="M2890 2323 c0 -28 3 -34 10 -23 5 8 10 23 10 32 0 9 6 19 13 21 6 3
2 6 -10 6 -20 1 -23 -4 -23 -36z"/>
<path d="M2926 2265 c-9 -26 -7 -32 5 -12 6 10 9 21 6 23 -2 3 -7 -2 -11 -11z"/>
<path d="M2896 2193 c-6 -14 -5 -15 5 -6 7 7 10 15 7 18 -3 3 -9 -2 -12 -12z"/>
<path d="M2865 2144 c-9 -15 -12 -23 -6 -20 11 7 35 46 28 46 -3 0 -12 -12
-22 -26z"/>
<path d="M2814 2078 l-29 -33 33 29 c30 28 37 36 29 36 -2 0 -16 -15 -33 -32z"/>
<path d="M2200 2065 c19 -19 36 -35 39 -35 3 0 -10 16 -29 35 -19 19 -36 35
-39 35 -3 0 10 -16 29 -35z"/>
<path d="M2745 2029 c-16 -11 -57 -28 -90 -39 -33 -10 -52 -19 -43 -19 26 -1
124 38 150 59 29 25 22 24 -17 -1z"/>
<path d="M2300 1997 c0 -3 15 -10 32 -16 18 -6 28 -7 23 -2 -12 10 -55 25 -55
18z"/>
<path d="M2378 1973 c7 -3 16 -2 19 1 4 3 -2 6 -13 5 -11 0 -14 -3 -6 -6z"/>
<path d="M2528 1963 c12 -2 32 -2 45 0 12 2 2 4 -23 4 -25 0 -35 -2 -22 -4z"/>
<path d="M719 1829 c-24 -45 16 -162 88 -263 47 -64 143 -166 208 -219 28 -23
7 1 -46 53 -52 52 -116 125 -142 161 -114 162 -141 313 -47 264 31 -16 31 -17
14 -36 -9 -10 -12 -19 -6 -19 6 0 15 8 21 18 8 13 12 14 22 5 10 -10 7 -16
-12 -32 -13 -10 -21 -23 -16 -27 4 -4 18 3 32 16 28 26 34 17 8 -12 -14 -16
-14 -18 -1 -18 9 0 19 7 22 16 3 8 11 12 17 9 7 -5 3 -15 -10 -29 -30 -32 -26
-44 5 -15 l25 23 50 -54 51 -55 -33 48 c-18 26 -39 53 -47 59 -11 10 -8 17 20
41 l33 29 -38 -22 c-44 -26 -59 -20 -31 11 l19 22 -27 -18 c-34 -21 -36 -10
-5 23 l22 25 -22 -12 c-12 -6 -25 -16 -28 -22 -5 -7 -11 -6 -21 2 -11 9 -10
14 9 31 l22 19 -27 -16 c-24 -15 -29 -15 -57 -1 -40 21 -58 20 -72 -5z"/>
<path d="M1020 1827 c-18 -14 -15 -48 4 -41 18 7 30 -130 13 -157 -15 -25 3
-44 33 -34 12 4 19 9 16 12 -3 4 -1 12 4 18 7 9 6 14 -4 18 -10 4 -17 30 -22
86 -6 73 -9 81 -27 81 -20 0 -21 0 -1 15 10 8 15 14 9 14 -5 0 -17 -5 -25 -12z"/>
<path d="M1710 1120 c0 -5 21 -10 48 -11 46 -1 47 -1 14 -10 -21 -6 -53 -6
-89 1 -76 13 -94 13 -68 -2 28 -17 187 -17 192 0 3 6 15 12 28 12 13 0 27 5
30 10 4 6 -23 10 -74 10 -47 0 -81 -4 -81 -10z"/>
<path d="M1898 1093 c7 -3 16 -2 19 1 4 3 -2 6 -13 5 -11 0 -14 -3 -6 -6z"/>
<path d="M1880 1076 c0 -2 7 -6 15 -10 8 -3 15 -1 15 4 0 6 -7 10 -15 10 -8 0
-15 -2 -15 -4z"/>
<path d="M1660 540 c8 -5 22 -9 30 -9 10 0 8 3 -5 9 -27 12 -43 12 -25 0z"/>
</g>
</svg>
